<svg width="27" height="30" viewBox="0 0 27 30" fill="none" xmlns="http://www.w3.org/2000/svg">
<path d="M21.0523 9.8C21.0523 7.73131 20.2566 5.74735 18.8403 4.28457C17.424 2.82178 15.503 2 13.5 2C11.497 2 9.57604 2.82178 8.1597 4.28457C6.74337 5.74735 5.94768 7.73131 5.94768 9.8C5.94768 13.8172 4.96647 16.5677 3.87037 18.387C2.94579 19.9216 2.4835 20.6889 2.50045 20.903C2.51922 21.14 2.56784 21.2304 2.75276 21.3721C2.91977 21.5 3.67265 21.5 5.17841 21.5H21.8216C23.3273 21.5 24.0802 21.5 24.2472 21.3721C24.4322 21.2304 24.4808 21.14 24.4995 20.903C24.5165 20.6889 24.0542 19.9216 23.1296 18.387C22.0335 16.5677 21.0523 13.8172 21.0523 9.8Z" fill="#9E9FEB"/>
<path d="M10.1696 26.7C11.0572 27.5091 12.2231 28 13.5 28C14.7769 28 15.9428 27.5091 16.8304 26.7M21.0523 9.8C21.0523 7.73131 20.2566 5.74735 18.8403 4.28457C17.424 2.82178 15.503 2 13.5 2C11.497 2 9.57604 2.82178 8.1597 4.28457C6.74337 5.74735 5.94768 7.73131 5.94768 9.8C5.94768 13.8172 4.96647 16.5677 3.87037 18.387C2.94579 19.9216 2.4835 20.6889 2.50045 20.903C2.51922 21.14 2.56784 21.2304 2.75276 21.3721C2.91977 21.5 3.67265 21.5 5.17841 21.5H21.8216C23.3273 21.5 24.0802 21.5 24.2472 21.3721C24.4322 21.2304 24.4808 21.14 24.4995 20.903C24.5165 20.6889 24.0542 19.9216 23.1296 18.387C22.0335 16.5677 21.0523 13.8172 21.0523 9.8Z" stroke="#9E9FEB" stroke-width="3.5" stroke-linecap="round" stroke-linejoin="round"/>
</svg>
