<svg width="24" height="24" viewBox="0 0 24 24" fill="none" xmlns="http://www.w3.org/2000/svg">
<path d="M17.0959 2.98384C19.0486 4.93328 20.0448 7.51927 20.0448 10.0655C20.0448 11.8956 19.5666 13.7257 18.5704 15.317L23.3126 20.0514C24.2291 20.9664 24.2291 22.3987 23.3126 23.3137C22.396 24.2288 20.9614 24.2288 20.0448 23.3137L15.3026 18.5794C13.7086 19.574 11.8755 20.0514 10.0423 20.0514C7.49191 20.0514 4.90162 19.0568 2.94894 17.1073C0.996264 15.1579 0 12.5719 0 10.0257C0 7.47949 0.996264 4.89349 2.94894 2.94405C4.90162 0.994613 7.49191 0 10.0423 0C12.5928 0 15.1831 0.994613 17.1357 2.94405L17.0959 2.98384ZM15.4222 10.0655C15.4222 8.67302 14.9041 7.32035 13.8281 6.24617C12.792 5.21177 11.3973 4.65479 10.0025 4.65479C8.60772 4.65479 7.2528 5.17199 6.17684 6.24617C5.10087 7.32035 4.58281 8.67302 4.58281 10.0655C4.58281 11.4579 5.10087 12.8106 6.17684 13.8848C7.21295 14.9192 8.60772 15.4762 10.0025 15.4762C11.3973 15.4762 12.7522 14.959 13.8281 13.8848C14.9041 12.8106 15.4222 11.4579 15.4222 10.0655Z" fill="#5C720D" style="mix-blend-mode:multiply"/>
</svg>
